<?xml version="1.0" encoding="utf-8"?>
<!-- Generator: Adobe Illustrator 25.0.0, SVG Export Plug-In . SVG Version: 6.00 Build 0)  -->
<svg version="1.1" id="Layer_1" xmlns="http://www.w3.org/2000/svg" xmlns:xlink="http://www.w3.org/1999/xlink" x="0px" y="0px"
	 viewBox="0 0 792 612" style="enable-background:new 0 0 792 612;" xml:space="preserve">
<style type="text/css">
	.st0{fill:#E76292;}
	.st1{fill:#569C88;}
</style>
<g>
	<path class="st0" d="M157.18,409.79c-13.74-32-20.61-65.58-20.61-100.74s6.87-68.75,20.61-100.74c13.74-32,32.18-59.57,55.34-82.73
		c23.16-23.16,50.73-41.6,82.73-55.34c32-13.74,65.58-20.61,100.74-20.61s68.75,6.87,100.74,20.61c32,13.74,59.57,32.19,82.73,55.34
		c23.16,23.16,41.61,50.73,55.34,82.73s20.61,65.58,20.61,100.74s-6.87,68.75-20.61,100.74s-32.19,59.57-55.34,82.73
		c-23.16,23.16-50.73,41.61-82.73,55.34c-32,13.74-65.58,20.61-100.74,20.61s-68.75-6.87-100.74-20.61
		c-32-13.73-59.57-32.18-82.73-55.34C189.37,469.37,170.92,441.79,157.18,409.79z M176.21,216.38
		c-12.59,29.5-18.88,60.39-18.88,92.67s6.29,63.18,18.88,92.67c12.58,29.5,29.55,54.91,50.88,76.24s46.74,38.29,76.24,50.87
		c29.5,12.59,60.39,18.88,92.67,18.88s63.17-6.29,92.67-18.88c29.5-12.58,54.91-29.54,76.24-50.87
		c21.33-21.33,38.29-46.74,50.87-76.24c12.59-29.5,18.88-60.39,18.88-92.67s-6.3-63.17-18.88-92.67
		c-12.59-29.5-29.54-54.91-50.87-76.24c-21.33-21.33-46.75-38.29-76.24-50.88c-29.5-12.58-60.39-18.88-92.67-18.88
		s-63.18,6.3-92.67,18.88c-29.5,12.59-54.91,29.55-76.24,50.88S188.79,186.88,176.21,216.38z M207.34,418.3
		c-19.51-33.44-29.26-69.85-29.26-109.25c0-39.39,9.75-75.81,29.26-109.25c19.5-33.44,45.98-59.91,79.41-79.41
		c33.44-19.5,69.85-29.26,109.25-29.26c39.39,0,75.81,9.76,109.25,29.26c33.44,19.51,59.91,45.98,79.41,79.41
		c19.5,33.44,29.26,69.86,29.26,109.25c0,39.4-9.76,75.81-29.26,109.25c-19.5,33.44-45.97,59.91-79.41,79.41
		c-33.44,19.51-69.86,29.26-109.25,29.26c-39.4,0-75.81-9.75-109.25-29.26C253.31,478.21,226.84,451.74,207.34,418.3z M214.4,232.37
		c-10.38,24.41-15.57,49.97-15.57,76.68c0,26.71,5.19,52.27,15.57,76.68c10.38,24.41,24.36,45.4,41.94,62.98
		c17.58,17.58,38.58,31.57,62.98,41.94c24.4,10.38,49.96,15.57,76.68,15.57c26.71,0,52.27-5.19,76.68-15.57
		c24.4-10.38,45.4-24.36,62.98-41.94c17.58-17.58,31.57-38.58,41.94-62.98c10.38-24.4,15.57-49.96,15.57-76.68
		c0-26.71-5.19-52.27-15.57-76.68c-10.38-24.4-24.36-45.4-41.94-62.98s-38.58-31.56-62.98-41.94
		c-24.41-10.38-49.97-15.57-76.68-15.57c-26.71,0-52.27,5.19-76.68,15.57c-24.41,10.38-45.4,24.36-62.98,41.94
		S224.78,207.97,214.4,232.37z M243.22,397.54c-15.76-27.1-23.64-56.59-23.64-88.49c0-31.9,7.88-61.4,23.64-88.49
		c15.75-27.1,37.18-48.52,64.28-64.28c27.1-15.75,56.59-23.64,88.49-23.64c31.9,0,61.4,7.88,88.5,23.64
		c27.1,15.76,48.52,37.18,64.28,64.28c15.75,27.1,23.64,56.6,23.64,88.49c0,31.9-7.88,61.4-23.64,88.49
		c-15.76,27.1-37.18,48.53-64.28,64.28c-27.1,15.76-56.6,23.64-88.5,23.64c-31.9,0-61.4-7.88-88.49-23.64
		C280.41,446.07,258.98,424.64,243.22,397.54z M261.24,230.93c-13.94,23.83-20.9,49.87-20.9,78.12s6.96,54.29,20.9,78.12
		c13.93,23.83,32.81,42.71,56.64,56.64c23.83,13.94,49.87,20.9,78.12,20.9c28.25,0,54.29-6.96,78.12-20.9
		c23.83-13.93,42.71-32.81,56.64-56.64c13.93-23.83,20.9-49.87,20.9-78.12s-6.97-54.29-20.9-78.12
		c-13.93-23.83-32.82-42.71-56.64-56.64c-23.83-13.93-49.87-20.9-78.12-20.9c-28.25,0-54.29,6.97-78.12,20.9
		C294.05,188.23,275.17,207.11,261.24,230.93z M271.76,361.37c-7.11-16.62-10.67-34.06-10.67-52.32c0-18.26,3.55-35.69,10.67-52.32
		c7.11-16.62,16.72-30.99,28.83-43.09s26.47-21.71,43.09-28.83c16.62-7.11,34.06-10.67,52.32-10.67c18.26,0,35.69,3.56,52.32,10.67
		c16.62,7.11,30.99,16.72,43.1,28.83s21.71,26.47,28.83,43.09c7.1,16.62,10.67,34.06,10.67,52.32c0,18.26-3.56,35.7-10.67,52.32
		c-7.11,16.62-16.72,30.99-28.83,43.09c-12.11,12.11-26.48,21.72-43.1,28.83c-16.62,7.11-34.06,10.67-52.32,10.67
		c-18.26,0-35.7-3.55-52.32-10.67c-16.62-7.11-30.99-16.72-43.09-28.83C288.48,392.35,278.87,377.99,271.76,361.37z M315.29,228.34
		c-22.29,22.3-33.44,49.2-33.44,80.71c0,31.52,11.14,58.42,33.44,80.71c22.29,22.3,49.19,33.44,80.71,33.44
		c31.51,0,58.42-11.14,80.71-33.44c22.29-22.29,33.44-49.19,33.44-80.71c0-31.52-11.15-58.42-33.44-80.71
		c-22.29-22.29-49.2-33.44-80.71-33.44C364.48,194.9,337.58,206.05,315.29,228.34z"/>
</g>
<polygon class="st0" points="409.79,53.22 382.21,53.22 396,25.64 "/>
<polygon class="st0" points="342.92,143.77 317.43,154.32 319.63,123.55 "/>
<polygon class="st0" points="200.83,143.37 184.22,165.4 170.5,137.77 "/>
<polygon class="st0" points="599.83,154.08 582.12,132.93 612.13,125.79 "/>
<polygon class="st0" points="560.15,252.97 549.22,227.64 580.02,229.38 "/>
<path class="st1" d="M655.43,309.05c0,143.28-116.15,259.43-259.43,259.43S136.57,452.33,136.57,309.05"/>
</svg>
