<svg id="Layer_1" data-name="Layer 1" xmlns="http://www.w3.org/2000/svg" xmlns:xlink="http://www.w3.org/1999/xlink" viewBox="0 0 746.49 222.79"><defs><style>.cls-1{fill:none;}.cls-2{fill:#f7f2de;}.cls-3{clip-path:url(#clip-path);}.cls-4{font-size:12px;fill:#569c88;font-family:MyriadPro-Regular, Myriad Pro;}</style><clipPath id="clip-path" transform="translate(-22.76 -220.53)"><rect class="cls-1" x="610.36" y="312.02" width="158.89" height="79.44"/></clipPath></defs><path class="cls-2" d="M616.67,338.17a78.57,78.57,0,0,1,0-61.7A78.38,78.38,0,0,1,659,234.19a78.57,78.57,0,0,1,61.7,0,78.38,78.38,0,0,1,42.28,42.28,78.57,78.57,0,0,1,0,61.7,78.3,78.3,0,0,1-42.28,42.28,78.45,78.45,0,0,1-61.7,0,78.3,78.3,0,0,1-42.28-42.28Zm5.82-59.23a72.56,72.56,0,0,0,0,56.76,71.71,71.71,0,0,0,38.93,38.93,72.56,72.56,0,0,0,56.76,0,71.71,71.71,0,0,0,38.93-38.93,72.56,72.56,0,0,0,0-56.76A71.73,71.73,0,0,0,718.18,240a72.45,72.45,0,0,0-56.76,0,71.73,71.73,0,0,0-38.93,38.92ZM632,340.78a66.94,66.94,0,0,1,0-66.91,66.48,66.48,0,0,1,24.31-24.32,66.94,66.94,0,0,1,66.91,0,66.43,66.43,0,0,1,24.32,24.32,66.94,66.94,0,0,1,0,66.91,66.4,66.4,0,0,1-24.32,24.31,66.87,66.87,0,0,1-66.91,0A66.45,66.45,0,0,1,632,340.78Zm2.16-56.94a60.17,60.17,0,0,0,0,47,58.87,58.87,0,0,0,32.13,32.13,60.17,60.17,0,0,0,47,0,58.87,58.87,0,0,0,32.13-32.13,60.17,60.17,0,0,0,0-47,59,59,0,0,0-32.13-32.13,60.29,60.29,0,0,0-47,0,59,59,0,0,0-32.13,32.13ZM643,334.42a54.34,54.34,0,0,1,0-54.2,53.46,53.46,0,0,1,19.68-19.68,54.34,54.34,0,0,1,54.2,0,53.46,53.46,0,0,1,19.68,19.68,54.34,54.34,0,0,1,0,54.2,54.05,54.05,0,0,1-93.56,0Zm5.51-51a47.9,47.9,0,0,0,0,47.84,47.64,47.64,0,0,0,17.35,17.35,47.9,47.9,0,0,0,47.84,0,47.64,47.64,0,0,0,17.35-17.35,47.9,47.9,0,0,0,0-47.84,47.61,47.61,0,0,0-17.35-17.34,47.9,47.9,0,0,0-47.84,0A47.61,47.61,0,0,0,648.53,283.4Zm3.22,39.94a41,41,0,0,1,0-32,40.75,40.75,0,0,1,22-22,40.88,40.88,0,0,1,32,0,40.69,40.69,0,0,1,22,22,40.88,40.88,0,0,1,0,32,40.75,40.75,0,0,1-22,22,41,41,0,0,1-32,0,40.81,40.81,0,0,1-22-22Zm13.33-40.73a34.95,34.95,0,1,0,24.72-10.24A33.68,33.68,0,0,0,665.08,282.61Z" transform="translate(-22.76 -220.53)"/><polygon class="cls-2" points="671.27 8.45 662.82 8.45 667.04 0 671.27 8.45"/><polygon class="cls-2" points="650.79 36.18 642.98 39.41 643.66 29.98 650.79 36.18"/><polygon class="cls-2" points="607.28 36.05 602.19 42.8 597.99 34.34 607.28 36.05"/><polygon class="cls-2" points="729.46 39.33 724.04 32.85 733.23 30.67 729.46 39.33"/><polygon class="cls-2" points="717.31 69.62 713.96 61.86 723.39 62.39 717.31 69.62"/><path class="cls-2" d="M171.59,263.33l-5.43,3.53A74.53,74.53,0,0,0,139.5,243a74.84,74.84,0,0,0-64.37-2.85A73.51,73.51,0,0,0,35.21,280a74.41,74.41,0,0,0,0,58.22,73.51,73.51,0,0,0,39.92,39.92,74.56,74.56,0,0,0,64.41-2.94,75.15,75.15,0,0,0,26.71-24l5.25,4a81.62,81.62,0,0,1-29,25.85,81.11,81.11,0,0,1-69.93,3.08,80.37,80.37,0,0,1-43.37-43.37,80.6,80.6,0,0,1,0-63.28A80.37,80.37,0,0,1,72.6,234.13a81.11,81.11,0,0,1,70,3.13A81.27,81.27,0,0,1,171.59,263.33Zm-10.68,7.42-5.43,3.53a61.68,61.68,0,0,0-22-19.78,62,62,0,0,0-53.28-2.4,60.47,60.47,0,0,0-32.95,33,61.73,61.73,0,0,0,0,48.16,60.47,60.47,0,0,0,33,33,61.13,61.13,0,0,0,24.09,4.88,60.26,60.26,0,0,0,29.24-7.33,62.18,62.18,0,0,0,22-19.83l5.25,3.9a68.12,68.12,0,0,1-24.31,21.77,68.66,68.66,0,0,1-66.5-1.18A68.18,68.18,0,0,1,45,343.45a68.64,68.64,0,0,1,0-68.62,68.18,68.18,0,0,1,24.94-24.94,68.61,68.61,0,0,1,66.64-1.09A68.48,68.48,0,0,1,160.91,270.75ZM150.05,278l-5.44,3.53A48.73,48.73,0,0,0,127.28,266a49.08,49.08,0,0,0-47.58.82,48.8,48.8,0,0,0-17.79,17.79,49.14,49.14,0,0,0,0,49.06A48.8,48.8,0,0,0,79.7,351.46a49,49,0,0,0,47.62.77,48.7,48.7,0,0,0,17.38-15.66l5.35,3.71A54.89,54.89,0,0,1,130.35,358a55.63,55.63,0,0,1-53.91-.91,54.92,54.92,0,0,1-20.19-20.19,55.75,55.75,0,0,1,0-55.58,54.92,54.92,0,0,1,20.19-20.19,55.63,55.63,0,0,1,53.91-.91A54.89,54.89,0,0,1,150.05,278Zm-10.78,7.42L133.93,289a35.68,35.68,0,0,0-29.69-15.66,35.85,35.85,0,1,0,0,71.7,35.06,35.06,0,0,0,17-4.25,35.65,35.65,0,0,0,12.72-11.5l5.25,3.8a42,42,0,0,1-15,13.49,42.17,42.17,0,0,1-36.35,1.63,41.8,41.8,0,0,1-22.58-22.59,42,42,0,0,1,0-32.86A41.8,41.8,0,0,1,87.8,270.12a42.16,42.16,0,0,1,36.44,1.68A42,42,0,0,1,139.27,285.42Z" transform="translate(-22.76 -220.53)"/><path class="cls-2" d="M185.72,384.1h-7.07L238,234.18H245L304.22,384.1h-7L241.48,243ZM242.3,258.44l3.71,8.33L199.66,384.1h-7Zm7.24,17.2,3.44,9-39.2,99.49h-7.06Zm6.88,17.93,3.44,9.14L227.72,384.1h-7Zm-17.74,72.61,2.53-6.52h42.73l2.72,6.52Zm5.07-13,2.53-6.52h32.5l2.81,6.52Zm5.07-13,2.62-6.52h22.27l2.63,6.52ZM259,234.18l59.3,149.92h-7.07L252,234.18Zm14,0,59.3,149.92h-7L266,234.18ZM346.32,384.1h-7.06L280.05,234.18h7Z" transform="translate(-22.76 -220.53)"/><path class="cls-2" d="M493.71,263.33l-5.43,3.53A74.47,74.47,0,0,0,461.61,243a74.82,74.82,0,0,0-64.36-2.85A73.57,73.57,0,0,0,357.32,280a74.41,74.41,0,0,0,0,58.22,73.57,73.57,0,0,0,39.93,39.92,74.56,74.56,0,0,0,64.41-2.94,75.23,75.23,0,0,0,26.71-24l5.25,4a81.7,81.7,0,0,1-29,25.85,81.14,81.14,0,0,1-69.94,3.08,80.39,80.39,0,0,1-43.36-43.37,80.48,80.48,0,0,1,0-63.28,80.39,80.39,0,0,1,43.36-43.37,81.13,81.13,0,0,1,70,3.13A81.36,81.36,0,0,1,493.71,263.33ZM483,270.75l-5.43,3.53a61.65,61.65,0,0,0-22-19.78,62,62,0,0,0-53.28-2.4,60.47,60.47,0,0,0-32.95,33,61.73,61.73,0,0,0,0,48.16,60.47,60.47,0,0,0,32.95,33,61,61,0,0,0,24.08,4.88,60.23,60.23,0,0,0,29.24-7.33,62,62,0,0,0,22-19.83l5.25,3.9a68.09,68.09,0,0,1-24.3,21.77,68.66,68.66,0,0,1-66.5-1.18,68.11,68.11,0,0,1-24.94-24.94,68.64,68.64,0,0,1,0-68.62A68.11,68.11,0,0,1,392,249.89a68.59,68.59,0,0,1,66.63-1.09A68.39,68.39,0,0,1,483,270.75ZM472.16,278l-5.43,3.53A48.84,48.84,0,0,0,449.39,266a49.06,49.06,0,0,0-47.57.82A48.65,48.65,0,0,0,384,284.61a49.08,49.08,0,0,0,0,49.06,48.65,48.65,0,0,0,17.79,17.79,49,49,0,0,0,47.62.77,48.79,48.79,0,0,0,17.38-15.66l5.34,3.71A54.86,54.86,0,0,1,452.47,358a55.63,55.63,0,0,1-53.91-.91,54.92,54.92,0,0,1-20.19-20.19,55.75,55.75,0,0,1,0-55.58,54.92,54.92,0,0,1,20.19-20.19,55.63,55.63,0,0,1,53.91-.91A54.86,54.86,0,0,1,472.16,278Zm-10.77,7.42L456.05,289a35.68,35.68,0,0,0-29.7-15.66,35.85,35.85,0,1,0,0,71.7,35.07,35.07,0,0,0,17-4.25,35.65,35.65,0,0,0,12.72-11.5l5.25,3.8a42.17,42.17,0,0,1-15,13.49,42.17,42.17,0,0,1-36.35,1.63,41.86,41.86,0,0,1-22.59-22.59,42,42,0,0,1,0-32.86,41.86,41.86,0,0,1,22.59-22.59,42.16,42.16,0,0,1,36.44,1.68A42.07,42.07,0,0,1,461.39,285.42Z" transform="translate(-22.76 -220.53)"/><path class="cls-2" d="M503.3,240.7v-6.52h97.78v6.52Zm0,13v-6.51h97.78v6.51Zm0,13v-6.52h97.78v6.52H575V384.1h-6.52V266.77H562V384.1h-6.52V266.77h-6.52V384.1h-6.52V266.77H535.9V384.1h-6.52V266.77Z" transform="translate(-22.76 -220.53)"/><g class="cls-3"><circle class="cls-2" cx="667.04" cy="91.49" r="79.44"/><text class="cls-4" transform="translate(280.03 134.01)">569C88</text></g><path class="cls-2" d="M298.55,443.3q-5.61,0-8.62-2.85c-2-1.91-3-4.63-3-8.18a13.61,13.61,0,0,1,1.39-6.35,10.07,10.07,0,0,1,3.95-4.15,12,12,0,0,1,6.07-1.47,16,16,0,0,1,3.47.37,10.38,10.38,0,0,1,2.82,1,24.45,24.45,0,0,1,.22,5.32H303.2l-2.15-5,2,1.73a11.12,11.12,0,0,0-5.13-1.23q-6.69,0-6.69,9,0,9.69,7.73,9.68a10.52,10.52,0,0,0,5.12-1.26l-.14,1.31-3,.27,2.76-5.21h1.73a21.89,21.89,0,0,1-.72,5.66,10.38,10.38,0,0,1-2.8,1A15.77,15.77,0,0,1,298.55,443.3Z" transform="translate(-22.76 -220.53)"/><path class="cls-2" d="M318.81,420.68l-6.91,20.78-.16-.68,2.74.65-.11,1.49h-7.08l.11-1.44a9.18,9.18,0,0,1,1.26-.51,12.62,12.62,0,0,1,1.44-.34l-1,.83,7.34-20.8Zm-6.35,15.93.74-2.16h9.54l.77,2.16Zm7.7-16.06,7.39,20.91-1-.65,2.94.62-.11,1.49H321l.11-1.53a14.14,14.14,0,0,1,2.68-.79l-.29.63L317.2,422.1l-.77-1.44a15.34,15.34,0,0,1,1.8-.14C318.9,420.51,319.55,420.52,320.16,420.55Z" transform="translate(-22.76 -220.53)"/><path class="cls-2" d="M342,443.3c-3.74,0-6.62-.95-8.62-2.85s-3-4.63-3-8.18a13.61,13.61,0,0,1,1.39-6.35,10,10,0,0,1,3.95-4.15,12,12,0,0,1,6.07-1.47,16,16,0,0,1,3.47.37,10.38,10.38,0,0,1,2.82,1,25.1,25.1,0,0,1,.22,5.32h-1.64l-2.16-5,2,1.73a11.08,11.08,0,0,0-5.12-1.23q-6.69,0-6.69,9,0,9.69,7.73,9.68a10.55,10.55,0,0,0,5.12-1.26l-.14,1.31-3,.27,2.77-5.21h1.73a21.89,21.89,0,0,1-.72,5.66,10.51,10.51,0,0,1-2.8,1A15.84,15.84,0,0,1,342,443.3Z" transform="translate(-22.76 -220.53)"/><path class="cls-2" d="M351.09,427.31a24.2,24.2,0,0,1,.36-6.63l3.48,1.28-2.31,5.35Zm.76-4.38-.4-2.25h18.46l-.81,2.25Zm4.07,20,.11-1.44a13.65,13.65,0,0,1,1.51-.46c.55-.14,1.12-.27,1.7-.39l-.45,1.66v-3.15h3.78v3.15l-.43-1.51,3.39.65-.11,1.49Zm2.87-.34V421h3.78v21.58Zm9.95-15.27L366.43,422l3.48-1.28a24.2,24.2,0,0,1,.36,6.63Z" transform="translate(-22.76 -220.53)"/><path class="cls-2" d="M374.29,424.45v-3.14l.34,1.5-2.72-.65.11-1.48h9l-.12,1.44a12.21,12.21,0,0,1-1.34.42q-.84.22-1.89.45l.52-1.68v3.14Zm0,12V421h3.87V436Zm8.36,6.87a9.25,9.25,0,0,1-6.09-1.87,6.14,6.14,0,0,1-2.27-5l3.87-.48a4.51,4.51,0,0,0,1.3,3.47,6.2,6.2,0,0,0,7.41,0,4.51,4.51,0,0,0,1.3-3.47l2.83.48a6.11,6.11,0,0,1-2.27,5A9.24,9.24,0,0,1,382.65,443.3Zm5.52-18.85v-3.14l.43,1.5-3.35-.65.12-1.48h7.92l-.11,1.44a13.35,13.35,0,0,1-2.6.87l.42-1.68v3.14Zm2.83,12-2.83-.48V421H391Z" transform="translate(-22.76 -220.53)"/><path class="cls-2" d="M402.55,443.28a10.64,10.64,0,0,1-6.56-1.89,22.61,22.61,0,0,1-.23-5.55h1.64l2.43,5.64-1.75-1.69a10,10,0,0,0,5,1.38,4.63,4.63,0,0,0,3.07-.9,3.15,3.15,0,0,0,1.07-2.54,3.09,3.09,0,0,0-.83-2.23,6.62,6.62,0,0,0-2.7-1.43l-2.2-.7q-5.69-1.8-5.68-6.42a6,6,0,0,1,2.11-4.83,8.5,8.5,0,0,1,5.7-1.8,12.31,12.31,0,0,1,5.8,1.35,21.13,21.13,0,0,1,.22,4.87h-1.73l-2-4.58,2.15,1.84a10.84,10.84,0,0,0-5-1.37q-3.66,0-3.66,3.21a3.16,3.16,0,0,0,.88,2.32,7,7,0,0,0,2.87,1.53l2.2.69q5.55,1.76,5.55,6.31a6.05,6.05,0,0,1-2.27,5A9.47,9.47,0,0,1,402.55,443.28Z" transform="translate(-22.76 -220.53)"/><path class="cls-2" d="M428.45,443.28a10.62,10.62,0,0,1-6.56-1.89,22.61,22.61,0,0,1-.23-5.55h1.64l2.43,5.64L424,439.79a9.91,9.91,0,0,0,5,1.38,4.65,4.65,0,0,0,3.07-.9,3.14,3.14,0,0,0,1.06-2.54,3,3,0,0,0-.83-2.23,6.51,6.51,0,0,0-2.69-1.43l-2.2-.7q-5.69-1.8-5.69-6.42a6,6,0,0,1,2.12-4.83,8.49,8.49,0,0,1,5.7-1.8,12.37,12.37,0,0,1,5.8,1.35,21.13,21.13,0,0,1,.22,4.87h-1.73l-2-4.58L434,423.8a10.84,10.84,0,0,0-5-1.37q-3.66,0-3.66,3.21a3.17,3.17,0,0,0,.89,2.32,7,7,0,0,0,2.86,1.53l2.21.69q5.54,1.76,5.54,6.31a6,6,0,0,1-2.27,5A9.42,9.42,0,0,1,428.45,443.28Z" transform="translate(-22.76 -220.53)"/><path class="cls-2" d="M448.46,420.68l-.11,1.44a21.14,21.14,0,0,1-2.86.87l.45-1.68v3.14h-3.77v-3.14l.38,1.5-3-.65.12-1.48Zm-8.81,22.24.12-1.44a20.85,20.85,0,0,1,2.85-.88l-.45,1.69v-3.15h3.77v3.15l-.38-1.51,3,.65-.11,1.49Zm2.52-.34V421h3.77v21.58Zm1.66-9.77v-2.2h13.41v2.2Zm17.75-12.13-.12,1.44a21.41,21.41,0,0,1-2.85.87l.45-1.68v3.14h-3.77v-3.14l.38,1.5-3-.65.11-1.48Zm-8.81,22.24.11-1.44a21,21,0,0,1,2.86-.88l-.45,1.69v-3.15h3.77v3.15l-.38-1.51,3,.65-.12,1.49Zm2.52-.34V421h3.77v21.58Z" transform="translate(-22.76 -220.53)"/><path class="cls-2" d="M474.92,443.32a10.65,10.65,0,0,1-5.57-1.41,9.5,9.5,0,0,1-3.65-4,15.09,15.09,0,0,1,0-12.21,9.43,9.43,0,0,1,3.66-4,11.75,11.75,0,0,1,11.16,0,9.46,9.46,0,0,1,3.66,4,15.09,15.09,0,0,1,0,12.21,9.49,9.49,0,0,1-3.66,4A10.76,10.76,0,0,1,474.92,443.32Zm.58-2.2q5.65,0,5.66-8.49,0-4.89-1.76-7.52a5.68,5.68,0,0,0-5-2.63q-5.67,0-5.66,8.49,0,4.92,1.76,7.53A5.7,5.7,0,0,0,475.5,441.12Z" transform="translate(-22.76 -220.53)"/><path class="cls-2" d="M497.11,420.68l-.11,1.44a21.14,21.14,0,0,1-2.86.87l.45-1.68v3.14h-3.77v-3.14l.38,1.5-3-.65.12-1.48Zm-8.81,22.24.12-1.44a20.85,20.85,0,0,1,2.85-.88l-.45,1.69v-3.15h3.77v3.15l-.49-1.51,3.77.65-.11,1.49Zm2.52-.34V421h3.77v21.58Zm6.27-7.52a46,46,0,0,1-4.81-.27l.34-2.12a45.54,45.54,0,0,0,4.87.27q4.45,0,4.45-5.05c0-3.31-1.43-5-4.27-5h-5.39v-2.25h5.59a9.44,9.44,0,0,1,6.11,1.74,6.07,6.07,0,0,1,2.14,5,7,7,0,0,1-2.44,5.58A9.86,9.86,0,0,1,497.09,435.06Z" transform="translate(-22.76 -220.53)"/></svg>