<svg id="Layer_1" data-name="Layer 1" xmlns="http://www.w3.org/2000/svg" viewBox="0 0 519.86 544.35"><defs><style>.cls-1{fill:none;stroke:#f7f2de;stroke-miterlimit:10;}</style></defs><path class="cls-1" d="M157.18,409.79a256.53,256.53,0,0,1,0-201.49q20.61-48,55.35-82.72t82.72-55.35a256.53,256.53,0,0,1,201.49,0q48,20.61,82.73,55.35t55.35,82.72a256.53,256.53,0,0,1,0,201.49q-20.61,48-55.35,82.73t-82.73,55.35a256.53,256.53,0,0,1-201.49,0q-48-20.61-82.72-55.35T157.18,409.79Zm19-193.41a236.87,236.87,0,0,0,0,185.34Q195.08,446,227.08,478t76.25,50.87a236.87,236.87,0,0,0,185.34,0Q532.92,510,564.92,478t50.87-76.25a236.87,236.87,0,0,0,0-185.34q-18.87-44.25-50.87-76.25T488.67,89.26a236.75,236.75,0,0,0-185.34,0q-44.26,18.87-76.25,50.87T176.21,216.38ZM207.34,418.3q-29.26-50.16-29.26-109.25T207.34,199.8a216.94,216.94,0,0,1,79.41-79.41Q336.91,91.14,396,91.13t109.25,29.26a216.94,216.94,0,0,1,79.41,79.41Q613.91,250,613.92,309.05T584.66,418.3a216.94,216.94,0,0,1-79.41,79.41Q455.09,527,396,527T286.75,497.71A216.94,216.94,0,0,1,207.34,418.3Zm7.06-185.93a196.58,196.58,0,0,0,0,153.35q15.57,36.61,41.94,63t63,41.94a196.58,196.58,0,0,0,153.35,0q36.61-15.57,63-41.94t41.94-63a196.58,196.58,0,0,0,0-153.35q-15.57-36.6-41.94-63t-63-41.94a196.58,196.58,0,0,0-153.35,0q-36.6,15.57-63,41.94T214.4,232.37Zm28.82,165.17a177.5,177.5,0,0,1,0-177,174.82,174.82,0,0,1,64.29-64.29,177.5,177.5,0,0,1,177,0,174.9,174.9,0,0,1,64.29,64.29,177.5,177.5,0,0,1,0,177,174.8,174.8,0,0,1-64.29,64.28,177.44,177.44,0,0,1-177,0A174.72,174.72,0,0,1,243.22,397.54Zm18-166.61a156.45,156.45,0,0,0,0,156.24,155.38,155.38,0,0,0,56.64,56.64,156.45,156.45,0,0,0,156.24,0,155.54,155.54,0,0,0,56.64-56.64,156.45,156.45,0,0,0,0-156.24,155.69,155.69,0,0,0-56.64-56.64,156.45,156.45,0,0,0-156.24,0A155.54,155.54,0,0,0,261.24,230.93Zm10.52,130.44a133.73,133.73,0,0,1,0-104.64,133.29,133.29,0,0,1,71.92-71.92,133.73,133.73,0,0,1,104.64,0,133.29,133.29,0,0,1,71.92,71.92,133.73,133.73,0,0,1,0,104.64,133.29,133.29,0,0,1-71.92,71.92,133.73,133.73,0,0,1-104.64,0,133.29,133.29,0,0,1-71.92-71.92Zm43.53-133q-33.45,33.43-33.44,80.71t33.44,80.71Q348.73,423.21,396,423.2t80.71-33.44q33.44-33.43,33.44-80.71t-33.44-80.71Q443.26,194.91,396,194.9T315.29,228.34Z" transform="translate(-136.07 -24.63)"/><polygon class="cls-1" points="273.72 24.99 246.13 24.99 259.93 1 273.72 24.99"/><polygon class="cls-1" points="205.48 115.82 179.98 126.37 183.56 98.92 205.48 115.82"/><polygon class="cls-1" points="61.73 116.45 45.12 138.48 34.43 113.14 61.73 116.45"/><polygon class="cls-1" points="466.56 127.1 448.85 105.94 476.06 101.16 466.56 127.1"/><polygon class="cls-1" points="427.45 226.88 416.52 201.55 443.95 204.75 427.45 226.88"/><path class="cls-1" d="M655.43,309.05c0,143.28-116.15,259.43-259.43,259.43S136.57,452.33,136.57,309.05Z" transform="translate(-136.07 -24.63)"/></svg>